<?xml version="1.0" standalone="no"?>
<!DOCTYPE svg PUBLIC "-//W3C//DTD SVG 20010904//EN"
 "http://www.w3.org/TR/2001/REC-SVG-20010904/DTD/svg10.dtd">
<svg version="1.0" xmlns="http://www.w3.org/2000/svg"
 width="1094.000000pt" height="980.000000pt" viewBox="0 0 1094.000000 980.000000"
 preserveAspectRatio="xMidYMid meet">

<g transform="translate(0.000000,980.000000) scale(0.100000,-0.100000)"
fill="#000000" stroke="none">
<path d="M2195 9781 c-85 -39 -105 -82 -105 -230 l0 -108 -93 -5 c-72 -4 -106
-11 -148 -30 -91 -42 -165 -132 -189 -230 l-12 -47 -420 -1 c-465 0 -453 1
-505 -67 l-28 -36 -3 -2435 -2 -2435 21 -43 c12 -26 36 -53 57 -66 37 -23 38
-23 517 -28 l480 -5 3 -292 2 -293 -802 0 c-522 0 -816 -4 -840 -10 -48 -14
-97 -55 -114 -97 -21 -49 -21 -3168 0 -3216 16 -39 61 -82 99 -96 20 -8 1617
-11 5358 -11 4454 0 5335 2 5362 14 43 17 95 78 102 118 3 18 4 742 3 1609
l-3 1576 -29 37 c-16 21 -47 47 -70 57 -39 18 -82 19 -853 19 l-813 0 0 1475
c0 1631 5 1517 -66 1571 l-37 29 -2114 3 -2113 2 0 1243 c0 1198 -1 1243 -19
1284 -12 25 -35 52 -58 67 l-38 26 -423 0 c-322 1 -424 4 -426 13 -29 106 -40
130 -87 181 -72 79 -139 108 -256 114 l-93 4 0 102 c-1 147 -24 200 -105 237
-37 17 -77 19 -570 19 -494 0 -533 -2 -570 -19z m903 -453 l3 -128 -336 0
-335 0 0 123 c0 68 3 127 7 130 4 4 153 6 332 5 l326 -3 3 -127z m-1008 -281
c0 -61 31 -130 71 -160 44 -31 178 -38 679 -35 l465 3 43 25 c58 33 83 77 90
156 l5 65 46 -3 46 -3 0 -220 0 -220 -772 -3 -773 -2 0 218 c0 120 3 222 7
225 3 4 26 7 50 7 l43 0 0 -53z m-440 -429 c0 -196 10 -233 77 -278 l37 -25
975 -3 c537 -1 991 0 1009 3 45 8 109 68 122 113 5 21 10 110 10 200 l0 162
310 0 310 0 0 -2215 0 -2215 -1735 0 -1735 0 0 2215 0 2215 310 0 310 0 0
-172z m3650 -3818 l0 -1370 -1595 0 -1595 0 0 295 0 295 1294 0 c889 0 1304 3
1323 11 42 15 92 68 103 109 6 22 10 409 10 1033 l0 997 230 0 230 0 0 -1370z
m1310 960 c4 -300 8 -411 18 -427 7 -12 29 -35 49 -50 l36 -28 522 0 522 0 37
29 c75 57 76 62 76 499 l0 387 480 0 480 0 0 -1370 0 -1370 -1595 0 -1595 0 0
1370 0 1370 483 -2 482 -3 5 -405z m910 398 c1 -10 0 -461 0 -550 0 -17 -20
-18 -285 -18 l-285 0 0 290 0 290 285 0 c221 0 285 -3 285 -12z m-6226 -3074
c14 -5 16 -50 16 -404 0 -396 0 -397 23 -431 32 -48 80 -77 140 -84 29 -3 259
-5 513 -3 l460 3 42 27 c78 52 76 43 82 493 l5 400 475 0 475 0 3 -1372 2
-1373 -1595 0 -1595 0 0 1369 c0 1086 3 1370 13 1374 18 8 922 8 941 1z m934
-286 l2 -288 -290 0 -290 0 0 283 c0 156 3 287 7 291 4 4 133 5 288 4 l280 -3
3 -287z m2612 -119 l5 -406 28 -36 c57 -75 33 -72 597 -72 564 0 540 -3 597
72 l28 36 5 406 5 406 460 3 c253 1 470 0 483 -3 l22 -5 -2 -1368 -3 -1367
-1595 0 -1595 0 -3 1364 c-2 1085 0 1366 10 1373 7 4 225 7 483 5 l470 -2 5
-406z m904 405 c14 -5 16 -40 16 -290 l0 -284 -290 0 -290 0 0 283 c0 156 3
287 7 290 8 9 536 9 557 1z m2626 -399 c6 -450 4 -441 82 -493 l42 -27 460 -3
c254 -2 484 0 513 3 57 7 104 34 137 78 20 27 21 42 26 435 l5 407 460 3 c253
1 470 0 483 -3 l22 -5 0 -1370 0 -1370 -1595 0 -1595 0 0 1368 c0 753 3 1372
7 1376 4 3 219 5 477 4 l471 -3 5 -400z m918 113 l2 -288 -290 0 -290 0 0 283
c0 156 3 287 7 290 4 4 133 6 287 5 l281 -3 3 -287z"/>
<path d="M1896 7995 c-20 -14 -71 -58 -113 -99 l-75 -75 -27 20 c-90 66 -235
0 -257 -118 -12 -62 11 -108 97 -198 44 -46 95 -90 114 -99 42 -20 108 -20
149 -1 18 9 105 89 193 178 196 197 208 224 156 335 -36 77 -163 107 -237 57z"/>
<path d="M2444 7801 c-23 -10 -54 -36 -70 -57 -59 -76 -28 -206 59 -247 32
-15 108 -17 792 -17 l757 0 40 22 c119 67 110 242 -16 299 -39 18 -82 19 -781
19 -701 0 -742 -1 -781 -19z"/>
<path d="M1913 7087 c-12 -7 -62 -51 -110 -99 l-89 -87 -30 20 c-131 82 -299
-46 -254 -194 14 -49 144 -188 202 -218 41 -21 102 -25 145 -8 29 11 336 308
355 344 47 85 13 196 -73 240 -34 18 -116 19 -146 2z"/>
<path d="M2445 6881 c-119 -54 -139 -211 -37 -289 l35 -27 769 -3 c749 -2 769
-2 807 18 72 36 108 131 77 205 -22 52 -43 74 -91 96 -38 17 -83 19 -780 19
-697 0 -742 -2 -780 -19z"/>
<path d="M1913 6167 c-13 -7 -63 -52 -112 -100 l-90 -88 -31 23 c-41 30 -121
31 -170 2 -69 -40 -103 -122 -81 -196 15 -47 153 -197 206 -222 38 -18 101
-21 142 -5 34 13 338 311 360 353 39 74 6 184 -67 225 -43 24 -121 28 -157 8z"/>
<path d="M2444 5961 c-23 -10 -54 -36 -70 -57 -59 -76 -28 -206 59 -247 32
-15 108 -17 792 -17 844 0 803 -3 850 69 62 93 30 206 -70 252 -38 17 -83 19
-780 19 -701 0 -742 -1 -781 -19z"/>
<path d="M1913 5247 c-12 -7 -62 -51 -110 -99 l-89 -87 -34 22 c-45 28 -123
29 -170 1 -69 -40 -103 -122 -80 -197 14 -49 144 -188 202 -218 41 -21 102
-25 145 -8 34 13 338 312 360 354 41 77 7 186 -69 226 -42 22 -121 25 -155 6z"/>
<path d="M2445 5041 c-119 -54 -139 -211 -37 -289 l35 -27 769 -3 c749 -2 769
-2 807 18 122 62 114 243 -13 301 -39 18 -82 19 -781 19 -697 0 -742 -2 -780
-19z"/>
</g>
</svg>
